Coordinates
version=1
nRows=4
nColumns=60
inDegrees=yes

Units are S.I. units (second, meters, Newtons, ...)
If the header above contains a line with 'inDegrees', this indicates whether rotational values are in degrees (yes) or radians (no).

endheader
time	pelvis_tilt	pelvis_list	pelvis_rotation	pelvis_tx	pelvis_ty	pelvis_tz	hip_flexion_r	hip_adduction_r	hip_rotation_r	knee_angle_r_beta	knee_angle_r	ankle_angle_r	subtalar_angle_r	mtp_angle_r	hip_flexion_l	hip_adduction_l	hip_rotation_l	knee_angle_l_beta	knee_angle_l	ankle_angle_l	subtalar_angle_l	mtp_angle_l	L5_S1_Flex_Ext	L5_S1_Lat_Bending	L5_S1_axial_rotation	L4_L5_Flex_Ext	L4_L5_Lat_Bending	L4_L5_axial_rotation	L3_L4_Flex_Ext	L3_L4_Lat_Bending	L3_L4_axial_rotation	L2_L3_Flex_Ext	L2_L3_Lat_Bending	L2_L3_axial_rotation	L1_L2_Flex_Ext	L1_L2_Lat_Bending	L1_L2_axial_rotation	L1_T12_Flex_Ext	L1_T12_Lat_Bending	L1_T12_axial_rotation	Abs_r3	Abs_r2	Abs_r1	Abs_t1	Abs_t2	arm_flex_r	arm_add_r	arm_rot_r	elbow_flex_r	pro_sup_r	wrist_flex_r	wrist_dev_r	arm_flex_l	arm_add_l	arm_rot_l	elbow_flex_l	pro_sup_l	wrist_flex_l	wrist_dev_l
     93.11000000	      0.53930461	      8.27427080	     92.67899555	      0.39414684	      0.93937491	      0.32675427	      1.70918856	     -5.01969910	     -0.16367126	      0.18007848	    -10.31773675	      4.77889792	      0.00000000	      0.00000000	      3.56320627	     -5.59543454	     -1.12358411	      0.19729618	    -11.30423836	      5.86086428	      0.00000000	      0.00000000	     -7.53312282	      0.16613001	     -0.08910227	    -13.98976239	      0.22095291	     -0.09467116	    -12.37616748	      0.40392851	     -0.09467116	     -8.60960607	      0.40392851	     -0.07796448	     -6.99525785	      0.33877232	     -0.07239559	     -4.30442638	      0.25733539	     -0.06682670	    -53.80834300	      1.87929591	     -0.49556007	      0.00000000	      0.00000000	     14.30462447	    -29.30213838	      5.18730377	     87.70803844	     75.11125124	      4.03102041	      9.49039871	     16.33395029	    -25.34389656	     10.44436023	     88.97606448	     74.70745597	     -2.89746879	     12.93896606
     93.12000000	      0.57666888	      8.06866350	     92.60777270	      0.39442794	      0.93899708	      0.32919090	      2.23081530	     -4.97662286	      0.03900559	      0.18417628	    -10.55252330	      4.49754786	      0.00000000	      0.00000000	      4.08074413	     -5.62248644	     -1.04525328	      0.20227506	    -11.58950717	      5.56809774	      0.00000000	      0.00000000	     -7.58868671	      0.16874089	     -0.07001746	    -14.09295009	      0.22442539	     -0.07439355	    -12.46745340	      0.41027660	     -0.07439355	     -8.67311004	      0.41027660	     -0.06126528	     -7.04685448	      0.34409643	     -0.05688919	     -4.33617559	      0.26137964	     -0.05251309	    -54.20523032	      1.90883072	     -0.38941611	      0.00000000	      0.00000000	     15.23351784	    -29.33719374	      6.05307139	     86.36666656	     75.13894372	      4.12624966	      9.50499529	     17.29762213	    -25.30595384	     11.26131369	     87.45999254	     74.59227368	     -2.91027904	     12.89666908
     93.13000000	      0.59460405	      7.66008541	     92.57175450	      0.39468289	      0.93819373	      0.33168540	      2.95337636	     -4.96397387	      0.23939050	      0.18744729	    -10.73993850	      4.42386693	      0.00000000	      0.00000000	      4.80794220	     -5.62224736	     -0.92865351	      0.20604857	    -11.80571355	      5.49368971	      0.00000000	      0.00000000	     -7.63742200	      0.16812657	     -0.06156121	    -14.18345640	      0.22360834	     -0.06540878	    -12.54752060	      0.40878294	     -0.06540878	     -8.72880960	      0.40878294	     -0.05386606	     -7.09211007	      0.34284370	     -0.05001848	     -4.36402293	      0.26042806	     -0.04617091	    -54.55334160	      1.90188138	     -0.34238497	      0.00000000	      0.00000000	     15.96329388	    -29.35424798	      6.63308155	     85.38458236	     75.15304186	      4.34129092	      8.92987298	     18.05952274	    -25.33376033	     11.89166689	     86.38088926	     74.12377825	     -3.26137387	     12.10806779
     93.14000000	      0.60031834	      7.49432097	     92.50560111	      0.39496147	      0.93775559	      0.33412567	      3.36517175	     -4.95742163	      0.33874414	      0.18899054	    -10.82836007	      4.27207843	      0.00000000	      0.00000000	      5.21634787	     -5.62553972	     -0.92732097	      0.20825045	    -11.93187192	      5.34353144	      0.00000000	      0.00000000	     -7.73032055	      0.16695551	     -0.04580432	    -14.35597830	      0.22205083	     -0.04866709	    -12.70014364	      0.40593563	     -0.04866709	     -8.83498336	      0.40593563	     -0.04007878	     -7.17837567	      0.34045568	     -0.03721601	     -4.41710516	      0.25861408	     -0.03435324	    -55.21690668	      1.88863412	     -0.25474989	      0.00000000	      0.00000000	     16.84609815	    -29.33766884	      7.18996731	     84.48747489	     75.16314077	      4.41227469	      8.83624707	     18.94612799	    -25.30136722	     12.43737457	     85.32134587	     73.99908948	     -3.28976056	     11.95688449
